<?xml version="1.0" encoding="UTF-8"?>
<svg version="1.1" xmlns="http://www.w3.org/2000/svg" width="1145" height="1145" viewBox="0 0 1145 1145" >
<style>
	.white { fill: #ffffff; }
	.color_base { fill: currentColor; }	
</style>
<path d="M0 0 C12.68146477 -0.37960039 24.59883169 0.23330578 37 3 C37.6820752 3.15033691 38.36415039 3.30067383 39.06689453 3.45556641 C64.88318383 9.43322608 87.2635761 23.6887999 106 42 C106.97646484 42.88365234 106.97646484 42.88365234 107.97265625 43.78515625 C127.62791116 61.95348881 139.48273204 89.88235361 141.21484375 116.2734375 C141.27671897 121.29220537 140.7238637 126.03232217 140 131 C141.52862671 131.33632446 141.52862671 131.33632446 143.08813477 131.67944336 C153.89547016 134.10964358 164.39934389 137.1640904 174.9375 140.5625 C177.21141403 141.28909474 179.48589982 142.0138799 181.76040649 142.73861694 C183.20888399 143.20040124 184.65711388 143.66296309 186.10507202 144.12637329 C191.38484722 145.81411073 196.680429 147.44167572 202 149 C201.54262451 148.58862793 201.08524902 148.17725586 200.61401367 147.75341797 C190.74222095 138.81914213 181.69479514 129.88524578 174 119 C173.58202148 118.41428223 173.16404297 117.82856445 172.73339844 117.22509766 C149.63249751 84.55939547 135.7545005 46.26120371 125 8 C138.90922737 9.73349421 149.76729119 20.21984675 160 29 C160.80566406 29.68578125 161.61132812 30.3715625 162.44140625 31.078125 C164.31436524 32.69757237 166.15789363 34.34562422 168 36 C169.14275391 36.98806641 169.14275391 36.98806641 170.30859375 37.99609375 C199.87294031 63.87066227 223.3844746 100.8405556 227.765625 140.40234375 C228.16993532 146.60850709 228.15872477 152.78328003 228 159 C230.22768094 160.12801949 232.45681472 161.2529424 234.6875 162.375 C235.40156006 162.73440674 236.11562012 163.09381348 236.85131836 163.46411133 C240.85275606 165.46590065 244.87006203 167.41954985 248.9296875 169.30078125 C261.35177702 175.06374179 273.2859911 181.44214639 285.12255859 188.32666016 C287.96810467 189.98145167 290.82162953 191.62182684 293.67578125 193.26171875 C305.84607806 200.30198288 317.55918328 207.82901319 329 216 C329.79003418 216.56332031 330.58006836 217.12664062 331.39404297 217.70703125 C342.98735407 226.01576624 354.10550025 234.7984739 365 244 C365.64372559 244.53931152 366.28745117 245.07862305 366.95068359 245.63427734 C373.47830424 251.10435986 379.85539566 256.59948374 385.7421875 262.76953125 C387.69207347 264.69580269 389.68562253 266.46475311 391.765625 268.24609375 C396.08726308 271.99735573 399.98903989 276.05470736 403.875 280.25 C404.57117432 280.99652832 405.26734863 281.74305664 405.98461914 282.51220703 C407.99420882 284.67071563 409.99779812 286.8346403 412 289 C412.77174561 289.82999512 412.77174561 289.82999512 413.55908203 290.67675781 C419.18234449 296.72707835 424.57120221 302.92380614 429.71142578 309.39013672 C431.09391078 311.1173262 432.49852811 312.82526952 433.90234375 314.53515625 C450.50008453 335.04227178 465.54958751 357.73900689 478 381 C478.56203125 382.03946777 479.1240625 383.07893555 479.703125 384.14990234 C520.86403125 460.64563069 540.86470802 546.26985687 532 709 C531.88849609 709.75190613 531.77699219 710.50381226 531.66210938 711.27850342 C528.658188 731.32495754 524.27315762 750.72164772 518.65429688 770.1918335 C517.08814513 775.63238971 515.65160315 781.1012787 514.23217773 786.58154297 C511.37232398 797.56970221 507.95745772 808.13129647 503.85742188 818.71240234 C502.98143545 821.04953014 502.17655629 823.40068823 501.390625 825.76953125 C493.23352802 850.34404548 481.07413898 873.17187804 469 896 C468.14559326 897.61575928 468.14559326 897.61575928 467.27392578 899.26416016 C460.96170085 911.14183848 454.34515995 922.73138955 447 934 C446.53094238 934.72670898 446.06188477 935.45341797 445.57861328 936.20214844 C436.81778459 949.74922611 427.49608979 962.49557267 416.484375 974.3046875 C415.18859395 975.7104877 413.8968694 977.1212981 412.65844727 978.57788086 C406.9236084 985.32032611 400.66933371 991.55242439 394.42358398 997.81665039 C392.45930963 999.79058313 390.50601431 1001.77496131 388.55273438 1003.75976562 C381.416089 1010.95494081 374.12711504 1017.58067043 366.02636719 1023.67602539 C362.30392241 1026.53452425 358.87729125 1029.64560118 355.42578125 1032.8203125 C352.84872426 1035.13592892 350.19417609 1037.32205066 347.5 1039.5 C343.9052235 1042.4081338 340.41739372 1045.38541332 337 1048.5 C332.77635723 1052.34510875 328.4130207 1055.96758171 323.97265625 1059.55859375 C320.66247471 1062.2772054 317.42531113 1065.07113617 314.1875 1067.875 C307.29864967 1073.81505836 300.21643506 1079.46447093 293 1085 C292.35772461 1085.49532227 291.71544922 1085.99064453 291.05371094 1086.50097656 C280.69151684 1094.47384207 270.17171647 1102.28882495 258.5625 1108.375 C255.62557894 1109.92886818 253.00496674 1111.70792348 250.36328125 1113.7109375 C249.70706787 1114.20803223 249.05085449 1114.70512695 248.37475586 1115.21728516 C247.07012015 1116.21722447 245.77478721 1117.22945486 244.49047852 1118.25537109 C240.27765065 1121.49497709 237.32581239 1122.69879724 232 1123 C231.1875 1120.8125 231.1875 1120.8125 231 1118 C234.56978365 1113.9975153 238.71431218 1110.63033321 242.8125 1107.1875 C268.07057255 1085.69175615 289.05431529 1055.97925126 297.921875 1023.84765625 C298.27765625 1022.57792969 298.6334375 1021.30820313 299 1020 C299.31710937 1018.42025391 299.31710937 1018.42025391 299.640625 1016.80859375 C301.7038318 1012.54581879 304.90776391 1011.16823813 309 1009 C309.91330078 1008.50226074 310.82660156 1008.00452148 311.76757812 1007.49169922 C314.91874319 1005.78832514 318.08364966 1004.11246019 321.25 1002.4375 C344.83809841 989.83132543 367.16046008 975.62023459 388.66235352 959.71899414 C390.34930322 958.47849149 392.04944769 957.25586308 393.75756836 956.04467773 C401.24712273 950.63224935 407.74326355 944.66395111 414.2019043 938.0793457 C415.82142344 936.42840342 417.4516119 934.78861652 419.08398438 933.15039062 C427.07237771 925.10408346 434.54535399 916.82062816 441.4375 907.8125 C441.99735596 907.08361572 442.55721191 906.35473145 443.1340332 905.60375977 C447.35096358 900.03648795 451.0479025 894.3059179 454.51171875 888.24609375 C455.00285156 887.50488281 455.49398437 886.76367188 456 886 C456.66 886 457.32 886 458 886 C458.2371875 885.33871094 458.474375 884.67742188 458.71875 883.99609375 C460.01247374 880.97083123 461.52609226 878.22079227 463.17100525 875.37765503 C473.9433018 856.61194018 481.76599903 837.00142309 488.5625 816.5 C489.30489037 814.28408405 490.04756946 812.0682648 490.79052734 809.85253906 C520.35119249 721.36059735 533.03191098 629.59968051 482.03125 421.66796875 C480.47436005 418.1656639 479.11683796 414.67221176 478 411 C459.77667145 412.78238289 440.22904068 420.79772974 428.23828125 435.1015625 C410.92594292 458.36623288 406.49119411 486.90615947 403.09375 514.94921875 C403.00796062 515.65416788 402.92217125 516.35911701 402.8337822 517.08542824 C401.00177529 532.23290275 399.60911645 547.41197579 398.25834846 562.60853672 C393.40745328 617.10916525 393.40745328 617.10916525 388.38677979 643.00256348 C387.98609934 645.07178678 387.59496653 647.1426772 387.20458984 649.21386719 C383.34671557 669.51118429 378.15753336 689.28481284 372 709 C371.64711914 710.14098145 371.29423828 711.28196289 370.93066406 712.45751953 C362.87244197 738.28813919 352.74776143 763.27630811 340.58129883 787.43701172 C337.73767656 793.12755656 335.43515943 798.52466833 333.75292969 804.65332031 C332.39344479 808.89046975 330.18298145 812.61495244 327.9375 816.4375 C327.42654785 817.31857422 326.9155957 818.19964844 326.38916016 819.10742188 C316.40319669 836.04230513 305.42429405 852.76114095 293 868 C291.96520924 869.29873347 290.93142321 870.59826787 289.8984375 871.8984375 C284.0495391 879.22142745 278.04581304 886.32107701 271.6328125 893.15625 C269.5989975 895.3530116 267.63032143 897.5742347 265.67578125 899.83984375 C261.97314227 904.08934946 258.0583254 908.08979413 254.0625 912.0625 C253.39798828 912.73087891 252.73347656 913.39925781 252.04882812 914.08789062 C247.53020933 918.59774391 242.83538545 922.834515 238 927 C236.83178196 928.03340514 235.66506806 929.0685136 234.5 930.10546875 C226.26674236 937.37971579 217.77729543 944.15522087 208.89501953 950.61962891 C207.14059923 951.89758464 205.39577718 953.18759138 203.65234375 954.48046875 C188.22821841 965.81516077 171.87548677 975.8763297 155.01269531 984.91357422 C153.14007956 985.92438694 151.28333694 986.95882969 149.4296875 988.00390625 C100.81829842 1014.91960825 44.22149998 1030.38142878 -11 1035 C-12.26328125 1035.11214844 -13.5265625 1035.22429687 -14.828125 1035.33984375 C-109.82723962 1042.3590091 -207.57073336 1014.40512178 -280.35986328 952.05859375 C-281.91262356 950.7124527 -283.45811433 949.35857759 -285 948 C-285.93714844 947.175 -286.87429688 946.35 -287.83984375 945.5 C-300.72727765 933.90307732 -313.45160618 921.7870945 -324 908 C-325.14293868 906.54822397 -326.2876298 905.09782672 -327.43359375 903.6484375 C-328.68558846 902.05783661 -329.93688786 900.46668818 -331.1875 898.875 C-331.77047852 898.13443359 -332.35345703 897.39386719 -332.95410156 896.63085938 C-338.09589535 890.02709687 -342.69552651 883.17412249 -347 876 C-347.8353125 875.0409375 -347.8353125 875.0409375 -348.6875 874.0625 C-350.49960769 871.2149022 -350.42251902 869.30973234 -350 866 C-348.56222319 863.91522362 -347.40201761 863.18760822 -345.125 862.125 C-340.52707302 861.85453371 -336.58497197 866.05531778 -333.125 868.75 C-295.66893686 896.07738208 -238.5309597 894.19796845 -195.02490234 887.78466797 C-162.29505278 882.56796045 -122.32939785 872.46603488 -100 846 C-96.67872045 841.11058316 -95.73802105 836.86902455 -95 831 C-95.94617188 830.53851562 -96.89234375 830.07703125 -97.8671875 829.6015625 C-129.19757538 814.20120022 -157.14433417 795.34232644 -184.125 773.25 C-185.07632812 772.47140625 -186.02765625 771.6928125 -187.0078125 770.890625 C-187.66523438 770.26671875 -188.32265625 769.6428125 -189 769 C-189 768.34 -189 767.68 -189 767 C-189.57878906 766.73832031 -190.15757812 766.47664062 -190.75390625 766.20703125 C-197.27688043 762.70164165 -203.40345125 756.37551338 -207.875 750.5625 C-209.63226429 748.443446 -211.21269503 746.91785153 -213.3125 745.1875 C-217.34116153 741.81466709 -220.62202077 738.01094666 -224 734 C-224.96124639 732.88846323 -225.92356791 731.7778557 -226.88671875 730.66796875 C-227.90399659 729.48728129 -228.92092307 728.30629101 -229.9375 727.125 C-230.43475586 726.55322021 -230.93201172 725.98144043 -231.44433594 725.39233398 C-235 721.22767847 -235 721.22767847 -235 719 C-235.66 719 -236.32 719 -237 719 C-238.59375 717.05078125 -238.59375 717.05078125 -240.5 714.3125 C-243.53541076 710.02785882 -246.6462897 705.82922133 -249.875 701.6875 C-259.70437011 688.98507508 -268.64639402 675.94055866 -276.40332031 661.8503418 C-280.13224402 655.09382733 -283.8951107 648.83127671 -289 643 C-290.25683594 641.51113281 -290.25683594 641.51113281 -291.5390625 639.9921875 C-315.10213603 612.7755138 -349.7933276 598.63472477 -385 595 C-386.13405273 594.87020752 -386.13405273 594.87020752 -387.29101562 594.73779297 C-417.3337491 591.4272068 -449.41138276 599.72558656 -474.80078125 615.828125 C-477 617 -477 617 -480 617 C-476.5193582 607.39342863 -469.50173416 599.16196029 -463.23828125 591.18945312 C-460.90294687 588.2364125 -460.90294687 588.2364125 -459 585 C-458.34 585 -457.68 585 -457 585 C-456.7834375 584.46761719 -456.566875 583.93523438 -456.34375 583.38671875 C-454.50573534 580.1221055 -452.04675902 577.52877829 -449.5 574.8125 C-448.96318604 574.23806152 -448.42637207 573.66362305 -447.87329102 573.07177734 C-440.86782398 565.65495542 -433.76184232 559.17697473 -425.015625 553.86328125 C-422.85352312 552.52737115 -420.76086689 551.17129754 -418.671875 549.73046875 C-404.55980834 540.00229937 -389.80699432 531.70517572 -373.796875 525.53515625 C-370.29369021 524.17716986 -366.99204878 522.52370819 -363.67285156 520.76733398 C-362 520 -362 520 -360 520 C-360.33 519.34 -360.66 518.68 -361 518 C-363.59174026 517.1811685 -363.59174026 517.1811685 -366.765625 516.5625 C-368.56773437 516.17964844 -368.56773437 516.17964844 -370.40625 515.7890625 C-372.30890625 515.39847656 -372.30890625 515.39847656 -374.25 515 C-376.08304688 514.60941406 -376.08304688 514.60941406 -377.953125 514.2109375 C-410.28205527 507.43008136 -454.50025969 500.44632688 -486 514 C-487.5781329 515.43229759 -487.5781329 515.43229759 -489 517 C-490.6484375 518.203125 -490.6484375 518.203125 -492.375 519.25 C-492.93960938 519.60578125 -493.50421875 519.9615625 -494.0859375 520.328125 C-496.6582027 521.23104258 -498.4105735 520.69407308 -501 520 C-497.06380979 507.36018423 -490.12189203 496.60492501 -481 487 C-480.34 487 -479.68 487 -479 487 C-479 486.34 -479 485.68 -479 485 C-477.671875 483.66015625 -477.671875 483.66015625 -475.75 482.0625 C-472.67644501 479.4597184 -469.69101034 476.79417929 -466.75634766 474.03540039 C-461.04010886 468.68325914 -455.1068404 463.84143003 -448.74462891 459.26025391 C-446.81458331 457.866062 -444.89753477 456.45495033 -442.98046875 455.04296875 C-432.4511331 447.32232538 -421.68791792 439.99555538 -410.77685547 432.82666016 C-407.92055871 430.94774225 -405.0715213 429.05813169 -402.22265625 427.16796875 C-390.38126671 419.34195059 -378.40622794 411.89709892 -366 405 C-365.34628418 404.63326172 -364.69256836 404.26652344 -364.01904297 403.88867188 C-349.27468369 395.64973482 -333.75938167 389.0383315 -318 383 C-316.81664062 382.53078125 -315.63328125 382.0615625 -314.4140625 381.578125 C-290.68855201 372.47210969 -264.8460213 367.89580502 -240 363 C-238.15746576 362.62803152 -236.31501158 362.25566611 -234.47265625 361.8828125 C-215.46640823 358.08875202 -196.2905258 354.76249899 -176.890625 354.17578125 C-173.11170303 354.0798309 -173.11170303 354.0798309 -169.86328125 353.4921875 C-122.2392972 347.42482452 -69.59767624 360.7368061 -26 379 C-24.34919312 379.68155854 -22.69815244 380.36255107 -21.046875 381.04296875 C-2.39678753 388.76757041 15.73599383 397.48922083 33.50048828 407.07446289 C37.58219218 409.26970553 41.70820777 411.34392662 45.875 413.375 C54.17046405 417.48992511 62.07448907 422.22005255 70 427 C71.1939594 427.7123251 72.38796681 428.42456974 73.58203125 429.13671875 C80.6693462 433.41601093 87.39194354 438.01627027 94 443 C95.00546875 443.73734375 96.0109375 444.4746875 97.046875 445.234375 C109.04780545 454.191167 120.22942324 464.07077128 129.36328125 475.98828125 C130.84859295 478.09578342 130.84859295 478.09578342 133 479 C133.39058594 477.72576172 133.39058594 477.72576172 133.7890625 476.42578125 C142.74607096 451.08611537 164.29386462 425.71589054 185 409 C186.06274458 408.1135744 187.12521845 407.22682419 188.1875 406.33984375 C237.35662654 365.71198998 301.9207357 344.20764377 365.69921875 349.5 C379.42119347 350.83405284 392.73990402 353.23219224 406 357 C406.76183594 357.21495117 407.52367187 357.42990234 408.30859375 357.65136719 C425.82928914 362.72993964 442.29312387 370.50467225 457.1640625 381.06640625 C459.89275095 383.11600155 459.89275095 383.11600155 463 384 C440.62774644 345.06021561 413.41783831 310.39398833 381.75 278.625 C381.2781427 278.15046387 380.8062854 277.67592773 380.32012939 277.18701172 C374.72289548 271.56568222 369.03949774 266.14233191 363 261 C361.91676439 260.05085191 360.83468308 259.10038441 359.75390625 258.1484375 C350.81038755 250.34720704 341.51792969 243.08507668 332 236 C330.93289795 235.20142578 330.93289795 235.20142578 329.84423828 234.38671875 C310.54053702 219.99103498 290.13118406 207.51824214 269 196 C268.0817041 195.49758789 267.1634082 194.99517578 266.21728516 194.47753906 C228.53336227 171.94333265 228.53336227 171.94333265 187 160 C186.86464844 160.58265625 186.72929688 161.1653125 186.58984375 161.765625 C179.61308916 188.33578021 153.25493526 205.33016694 130.7890625 218.49609375 C107.34804992 231.93585205 78.04431481 248.47206143 50 243 C49.19371376 237.75913944 50.82555109 234.89170027 53.75390625 230.76953125 C59.5907578 223.57243951 66.08136467 216.85589153 72.68359375 210.359375 C75.03748023 208.05022202 75.03748023 208.05022202 76.98828125 205.45703125 C79.17264136 202.78914288 81.48328526 200.82199562 84.1875 198.6875 C87.6602093 195.93678883 90.99245049 193.11493913 94.2734375 190.13671875 C98.77286919 186.1176768 103.4849912 182.56387208 108.4375 179.125 C109.30076904 178.52494141 110.16403809 177.92488281 111.0534668 177.30664062 C126.32572287 166.8508153 142.31137577 158.42512046 160.2421875 153.54296875 C162.0083855 153.14725506 162.0083855 153.14725506 163 152 C146.77319088 147.35701047 130.63819777 142.94412813 114 140 C113.59910156 140.75023437 113.19820312 141.50046875 112.78515625 142.2734375 C108.62035153 149.77197479 103.97021877 155.86760211 98 162 C97.31292969 162.74894531 96.62585938 163.49789062 95.91796875 164.26953125 C66.40198906 195.5378511 17.56506119 205.84769934 -23 213 C-23.75958008 213.13664063 -24.51916016 213.27328125 -25.30175781 213.4140625 C-32.13706999 214.62010538 -38.16124481 215.36775104 -45 214 C-42.93676117 200.71645113 -29.62609801 191.05115001 -19.74609375 183.19921875 C-18.00003249 181.8008795 -16.27996906 180.36894849 -14.59765625 178.89453125 C-0.94756821 167.0558293 15.3435701 157.8890911 32 151 C32.86898926 150.6395459 33.73797852 150.2790918 34.63330078 149.90771484 C50.39806711 143.47406738 66.45148748 138.94259836 83 135 C83 134.67 83 134.34 83 134 C79.64703509 133.49171557 76.29246657 132.99488543 72.9375 132.5 C71.99455078 132.35691406 71.05160156 132.21382812 70.08007812 132.06640625 C60.35982282 130.4716218 60.35982282 130.4716218 50.875 132.375 C18.90085656 143.71372986 -20.05187967 131.70222045 -49.375 117.9921875 C-53.30506184 116.09531736 -57.15843785 114.06901021 -61 112 C-62.14339844 111.39800781 -63.28679687 110.79601562 -64.46484375 110.17578125 C-77.57672994 103.01155478 -90.05171503 94.2309168 -100.91796875 83.95703125 C-102.85733995 82.13409509 -104.86813226 80.48375291 -106.9375 78.8125 C-114.00362384 72.68371911 -120.58259409 64.24778113 -125 56 C-125 55.34 -125 54.68 -125 54 C-126.65 54 -128.3 54 -130 54 C-120.49429433 42.961116 -102.81132078 41.14199279 -89 40 C-62.54784598 38.52412875 -37.59809718 45.47757473 -14 57 C-12.9471582 57.50805176 -12.9471582 57.50805176 -11.87304688 58.02636719 C10.3118293 68.85151761 30.18493689 84.01234186 48 101 C48.77472656 101.73347656 49.54945313 102.46695313 50.34765625 103.22265625 C55.60393957 108.32174231 55.60393957 108.32174231 56.97134399 110.66343689 C58.59567425 113.363958 59.92368452 115.51510503 62.85762024 116.83688354 C65.08153013 117.34969085 67.25959271 117.66859677 69.52734375 117.92578125 C70.76539513 118.10357368 70.76539513 118.10357368 72.02845764 118.28495789 C74.66177364 118.65640429 77.29838176 118.98511693 79.9375 119.3125 C81.67551867 119.54990768 83.41315694 119.79011792 85.15039062 120.03320312 C88.52132433 120.50032729 91.89370539 120.95110745 95.26904297 121.38525391 C101.52224754 122.19065942 107.7609035 123.09208383 114 124 C113.12859375 123.33355469 112.2571875 122.66710937 111.359375 121.98046875 C104.06838235 116.35498875 97.12576936 110.53404769 90.42578125 104.21484375 C88.01174602 101.89849492 88.01174602 101.89849492 85 100 C85 99.34 85 98.68 85 98 C84.42870361 97.7539502 83.85740723 97.50790039 83.26879883 97.25439453 C80.62007757 95.78994496 78.83314406 94.0756157 76.69921875 91.9296875 C75.48008789 90.70765625 75.48008789 90.70765625 74.23632812 89.4609375 C73.39521484 88.60757813 72.55410156 87.75421875 71.6875 86.875 C70.85798828 86.04484375 70.02847656 85.2146875 69.17382812 84.359375 C64.24733743 79.3978895 59.54635669 74.30972459 55 69 C53.95463404 67.8085701 52.90778304 66.61844138 51.859375 65.4296875 C45.60178238 58.29064584 39.56140353 51.03751455 33.75 43.53125 C31.36406928 40.4508553 28.92249532 37.41907267 26.46875 34.39257812 C21.99107774 28.85831229 17.61664485 23.26390891 13.4375 17.5 C13.03200928 16.94892578 12.62651855 16.39785156 12.20874023 15.83007812 C9.40033752 11.89557209 6 7.00141861 6 2 C4.02 1.67 2.04 1.34 0 1 C0 0.67 0 0.34 0 0 Z M335.8125 402.875 C326.19198412 412.03957882 326.19198412 412.03957882 319 423 C320.7705913 423.75849677 320.7705913 423.75849677 323 424 C325.28501142 422.9819735 325.28501142 422.9819735 327.5625 421.375 C337.50801483 414.76701881 348.21175014 411.62185043 359.68359375 408.77148438 C366.24027494 407.04924117 371.78338518 404.77876184 377.62426758 401.3215332 C380.70089408 399.61011821 383.57715608 398.76063198 387 398 C384.53712306 392.19464722 379.41389952 389.02126518 373.75 386.625 C358.47810233 383.15411417 345.85440414 392.8537937 335.8125 402.875 Z " class="white" transform="translate(545,10)"/>



<path d="M0 0 C1.65080688 0.68155854 3.30184756 1.36255107 4.953125 2.04296875 C23.60321247 9.76757041 41.73599383 18.48922083 59.50048828 28.07446289 C63.58219218 30.26970553 67.70820777 32.34392662 71.875 34.375 C80.17046405 38.48992511 88.07448907 43.22005255 96 48 C97.1939594 48.7123251 98.38796681 49.42456974 99.58203125 50.13671875 C106.6693462 54.41601093 113.39194354 59.01627027 120 64 C121.50820312 65.10601562 121.50820312 65.10601562 123.046875 66.234375 C139.10481145 78.21907879 152.78834948 91.56353042 163.09765625 108.875 C164.81714848 111.6996279 166.63207013 114.37967541 168.5625 117.0625 C192.6427 151.22151674 197.27329203 192.94785335 190.328125 233.43359375 C185.03524398 261.21307623 172.70986645 287.79047143 153 308.25 C149.93547279 311.63654408 147.74217184 314.08984239 147.6484375 318.7578125 C148.28832628 322.83888096 149.64867916 326.69150265 150.94140625 330.60546875 C155.69021515 345.83319915 155.78519316 364.52408005 152 380 C151.76603516 380.98250732 151.76603516 380.98250732 151.52734375 381.98486328 C146.64312875 402.13225015 138.44423155 420.06816636 125 436 C124.33291016 436.88558594 124.33291016 436.88558594 123.65234375 437.7890625 C111.34748276 453.6687302 91.40469461 462.52600821 73 469 C72.09491699 469.32685791 71.18983398 469.65371582 70.25732422 469.99047852 C56.99163706 474.10182737 43.14835474 474.54030473 29.375 474.4375 C28.50459076 474.43445862 27.63418152 474.43141724 26.73739624 474.42828369 C4.8467297 474.31561943 -15.15964498 470.6088333 -36 464 C-36.77005371 463.76023437 -37.54010742 463.52046875 -38.33349609 463.2734375 C-43.5964948 461.6265589 -48.80995965 459.86383279 -54 458 C-54.78165527 457.71962891 -55.56331055 457.43925781 -56.36865234 457.15039062 C-69.47779451 452.3661478 -81.57628464 446.2291798 -93.68701172 439.31884766 C-95.55507907 438.2536904 -97.43411083 437.20777623 -99.31640625 436.16796875 C-116.22918652 426.66505522 -131.93422647 415.17247322 -147 403 C-147.58056152 402.53126465 -148.16112305 402.0625293 -148.75927734 401.57958984 C-151.09575579 399.68755404 -153.4222315 397.78417554 -155.73828125 395.8671875 C-157.39273829 394.50133177 -159.08326191 393.17884202 -160.79296875 391.8828125 C-161.52128906 391.26148438 -162.24960937 390.64015625 -163 390 C-163 389.34 -163 388.68 -163 388 C-163.57878906 387.73832031 -164.15757812 387.47664063 -164.75390625 387.20703125 C-171.27688043 383.70164165 -177.40345125 377.37551338 -181.875 371.5625 C-183.63226429 369.443446 -185.21269503 367.91785153 -187.3125 366.1875 C-191.34116153 362.81466709 -194.62202077 359.01094666 -198 355 C-198.96124639 353.88846323 -199.92356791 352.7778557 -200.88671875 351.66796875 C-201.90399659 350.48728129 -202.92092307 349.30629101 -203.9375 348.125 C-204.43475586 347.55322021 -204.93201172 346.98144043 -205.44433594 346.39233398 C-209 342.22767847 -209 342.22767847 -209 340 C-209.66 340 -210.32 340 -211 340 C-212.59375 338.05078125 -212.59375 338.05078125 -214.5 335.3125 C-217.53541076 331.02785882 -220.6462897 326.82922133 -223.875 322.6875 C-233.70437011 309.98507508 -242.64639402 296.94055866 -250.40332031 282.8503418 C-254.13224402 276.09382733 -257.8951107 269.83127671 -263 264 C-263.83789062 263.00742187 -264.67578125 262.01484375 -265.5390625 260.9921875 C-289.10213603 233.7755138 -323.7933276 219.63472477 -359 216 C-359.75603516 215.91347168 -360.51207031 215.82694336 -361.29101562 215.73779297 C-391.3337491 212.4272068 -423.41138276 220.72558656 -448.80078125 236.828125 C-451 238 -451 238 -454 238 C-450.5193582 228.39342863 -443.50173416 220.16196029 -437.23828125 212.18945312 C-434.90294687 209.2364125 -434.90294687 209.2364125 -433 206 C-432.34 206 -431.68 206 -431 206 C-430.7834375 205.46761719 -430.566875 204.93523437 -430.34375 204.38671875 C-428.50573534 201.1221055 -426.04675902 198.52877829 -423.5 195.8125 C-422.69477905 194.95084229 -422.69477905 194.95084229 -421.87329102 194.07177734 C-414.86782398 186.65495542 -407.76184232 180.17697473 -399.015625 174.86328125 C-396.85352312 173.52737115 -394.76086689 172.17129754 -392.671875 170.73046875 C-378.55980834 161.00229937 -363.80699432 152.70517572 -347.796875 146.53515625 C-344.29369021 145.17716986 -340.99204878 143.52370819 -337.67285156 141.76733398 C-336 141 -336 141 -334 141 C-334.33 140.34 -334.66 139.68 -335 139 C-337.59174026 138.1811685 -337.59174026 138.1811685 -340.765625 137.5625 C-341.96703125 137.30726563 -343.1684375 137.05203125 -344.40625 136.7890625 C-345.6746875 136.52867187 -346.943125 136.26828125 -348.25 136 C-349.47203125 135.73960937 -350.6940625 135.47921875 -351.953125 135.2109375 C-384.28205527 128.43008136 -428.50025969 121.44632688 -460 135 C-461.5781329 136.43229759 -461.5781329 136.43229759 -463 138 C-464.6484375 139.203125 -464.6484375 139.203125 -466.375 140.25 C-466.93960938 140.60578125 -467.50421875 140.9615625 -468.0859375 141.328125 C-470.6582027 142.23104258 -472.4105735 141.69407308 -475 141 C-471.06380979 128.36018423 -464.12189203 117.60492501 -455 108 C-454.34 108 -453.68 108 -453 108 C-453 107.34 -453 106.68 -453 106 C-451.671875 104.66015625 -451.671875 104.66015625 -449.75 103.0625 C-446.67644501 100.4597184 -443.69101034 97.79417929 -440.75634766 95.03540039 C-435.04010886 89.68325914 -429.1068404 84.84143003 -422.74462891 80.26025391 C-420.81458331 78.866062 -418.89753477 77.45495033 -416.98046875 76.04296875 C-406.4511331 68.32232538 -395.68791792 60.99555538 -384.77685547 53.82666016 C-381.92055871 51.94774225 -379.0715213 50.05813169 -376.22265625 48.16796875 C-364.38126671 40.34195059 -352.40622794 32.89709892 -340 26 C-339.34628418 25.63326172 -338.69256836 25.26652344 -338.01904297 24.88867188 C-323.27468369 16.64973482 -307.75938167 10.0383315 -292 4 C-290.81664062 3.53078125 -289.63328125 3.0615625 -288.4140625 2.578125 C-264.68855201 -6.52789031 -238.8460213 -11.10419498 -214 -16 C-212.15746576 -16.37196848 -210.31501158 -16.74433389 -208.47265625 -17.1171875 C-189.46640823 -20.91124798 -170.2905258 -24.23750101 -150.890625 -24.82421875 C-147.11170303 -24.9201691 -147.11170303 -24.9201691 -143.86328125 -25.5078125 C-96.2392972 -31.57517548 -43.59767624 -18.2631939 0 0 Z " class="color_base" filter="url(#lighten)" transform="translate(519,389)"/>

<path d="M0 0 C1.65080688 0.68155854 3.30184756 1.36255107 4.953125 2.04296875 C23.60321247 9.76757041 41.73599383 18.48922083 59.50048828 28.07446289 C63.58219218 30.26970553 67.70820777 32.34392662 71.875 34.375 C80.17046405 38.48992511 88.07448907 43.22005255 96 48 C97.1939594 48.7123251 98.38796681 49.42456974 99.58203125 50.13671875 C106.6693462 54.41601093 113.39194354 59.01627027 120 64 C121.50820312 65.10601562 121.50820312 65.10601562 123.046875 66.234375 C139.10481145 78.21907879 152.78834948 91.56353042 163.09765625 108.875 C164.81714848 111.6996279 166.63207013 114.37967541 168.5625 117.0625 C192.6427 151.22151674 197.27329203 192.94785335 190.328125 233.43359375 C185.03524398 261.21307623 172.70986645 287.79047143 153 308.25 C149.93547279 311.63654408 147.74217184 314.08984239 147.6484375 318.7578125 C148.28832628 322.83888096 149.64867916 326.69150265 150.94140625 330.60546875 C155.69021515 345.83319915 155.78519316 364.52408005 152 380 C151.76603516 380.98250732 151.76603516 380.98250732 151.52734375 381.98486328 C146.64312875 402.13225015 138.44423155 420.06816636 125 436 C124.33291016 436.88558594 124.33291016 436.88558594 123.65234375 437.7890625 C111.34748276 453.6687302 91.40469461 462.52600821 73 469 C72.09491699 469.32685791 71.18983398 469.65371582 70.25732422 469.99047852 C56.99163706 474.10182737 43.14835474 474.54030473 29.375 474.4375 C28.50459076 474.43445862 27.63418152 474.43141724 26.73739624 474.42828369 C4.8467297 474.31561943 -15.15964498 470.6088333 -36 464 C-36.77005371 463.76023437 -37.54010742 463.52046875 -38.33349609 463.2734375 C-43.5964948 461.6265589 -48.80995965 459.86383279 -54 458 C-54.78165527 457.71962891 -55.56331055 457.43925781 -56.36865234 457.15039062 C-69.47779451 452.3661478 -81.57628464 446.2291798 -93.68701172 439.31884766 C-95.55507907 438.2536904 -97.43411083 437.20777623 -99.31640625 436.16796875 C-116.22918652 426.66505522 -131.93422647 415.17247322 -147 403 C-147.58056152 402.53126465 -148.16112305 402.0625293 -148.75927734 401.57958984 C-151.09575579 399.68755404 -153.4222315 397.78417554 -155.73828125 395.8671875 C-157.39273829 394.50133177 -159.08326191 393.17884202 -160.79296875 391.8828125 C-161.52128906 391.26148438 -162.24960937 390.64015625 -163 390 C-163 389.34 -163 388.68 -163 388 C-163.57878906 387.73832031 -164.15757812 387.47664063 -164.75390625 387.20703125 C-171.27688043 383.70164165 -177.40345125 377.37551338 -181.875 371.5625 C-183.63226429 369.443446 -185.21269503 367.91785153 -187.3125 366.1875 C-191.34116153 362.81466709 -194.62202077 359.01094666 -198 355 C-198.96124639 353.88846323 -199.92356791 352.7778557 -200.88671875 351.66796875 C-201.90399659 350.48728129 -202.92092307 349.30629101 -203.9375 348.125 C-204.43475586 347.55322021 -204.93201172 346.98144043 -205.44433594 346.39233398 C-209 342.22767847 -209 342.22767847 -209 340 C-209.66 340 -210.32 340 -211 340 C-212.59375 338.05078125 -212.59375 338.05078125 -214.5 335.3125 C-217.53541076 331.02785882 -220.6462897 326.82922133 -223.875 322.6875 C-233.70437011 309.98507508 -242.64639402 296.94055866 -250.40332031 282.8503418 C-254.13224402 276.09382733 -257.8951107 269.83127671 -263 264 C-263.83789062 263.00742187 -264.67578125 262.01484375 -265.5390625 260.9921875 C-289.10213603 233.7755138 -323.7933276 219.63472477 -359 216 C-359.75603516 215.91347168 -360.51207031 215.82694336 -361.29101562 215.73779297 C-391.3337491 212.4272068 -423.41138276 220.72558656 -448.80078125 236.828125 C-451 238 -451 238 -454 238 C-450.5193582 228.39342863 -443.50173416 220.16196029 -437.23828125 212.18945312 C-434.90294687 209.2364125 -434.90294687 209.2364125 -433 206 C-432.34 206 -431.68 206 -431 206 C-430.7834375 205.46761719 -430.566875 204.93523437 -430.34375 204.38671875 C-428.50573534 201.1221055 -426.04675902 198.52877829 -423.5 195.8125 C-422.69477905 194.95084229 -422.69477905 194.95084229 -421.87329102 194.07177734 C-414.86782398 186.65495542 -407.76184232 180.17697473 -399.015625 174.86328125 C-396.85352312 173.52737115 -394.76086689 172.17129754 -392.671875 170.73046875 C-378.55980834 161.00229937 -363.80699432 152.70517572 -347.796875 146.53515625 C-344.29369021 145.17716986 -340.99204878 143.52370819 -337.67285156 141.76733398 C-336 141 -336 141 -334 141 C-334.33 140.34 -334.66 139.68 -335 139 C-337.59174026 138.1811685 -337.59174026 138.1811685 -340.765625 137.5625 C-341.96703125 137.30726563 -343.1684375 137.05203125 -344.40625 136.7890625 C-345.6746875 136.52867187 -346.943125 136.26828125 -348.25 136 C-349.47203125 135.73960937 -350.6940625 135.47921875 -351.953125 135.2109375 C-384.28205527 128.43008136 -428.50025969 121.44632688 -460 135 C-461.5781329 136.43229759 -461.5781329 136.43229759 -463 138 C-464.6484375 139.203125 -464.6484375 139.203125 -466.375 140.25 C-466.93960938 140.60578125 -467.50421875 140.9615625 -468.0859375 141.328125 C-470.6582027 142.23104258 -472.4105735 141.69407308 -475 141 C-471.06380979 128.36018423 -464.12189203 117.60492501 -455 108 C-454.34 108 -453.68 108 -453 108 C-453 107.34 -453 106.68 -453 106 C-451.671875 104.66015625 -451.671875 104.66015625 -449.75 103.0625 C-446.67644501 100.4597184 -443.69101034 97.79417929 -440.75634766 95.03540039 C-435.04010886 89.68325914 -429.1068404 84.84143003 -422.74462891 80.26025391 C-420.81458331 78.866062 -418.89753477 77.45495033 -416.98046875 76.04296875 C-406.4511331 68.32232538 -395.68791792 60.99555538 -384.77685547 53.82666016 C-381.92055871 51.94774225 -379.0715213 50.05813169 -376.22265625 48.16796875 C-364.38126671 40.34195059 -352.40622794 32.89709892 -340 26 C-339.34628418 25.63326172 -338.69256836 25.26652344 -338.01904297 24.88867188 C-323.27468369 16.64973482 -307.75938167 10.0383315 -292 4 C-290.81664062 3.53078125 -289.63328125 3.0615625 -288.4140625 2.578125 C-264.68855201 -6.52789031 -238.8460213 -11.10419498 -214 -16 C-212.15746576 -16.37196848 -210.31501158 -16.74433389 -208.47265625 -17.1171875 C-189.46640823 -20.91124798 -170.2905258 -24.23750101 -150.890625 -24.82421875 C-147.11170303 -24.9201691 -147.11170303 -24.9201691 -143.86328125 -25.5078125 C-96.2392972 -31.57517548 -43.59767624 -18.2631939 0 0 Z " style="opacity: 0.5" class="white" filter="url(#lighten)" transform="translate(519,389)"/>

<path d="M0 0 C1.32 0 2.64 0 4 0 C4 0.66 4 1.32 4 2 C4.69931641 2.11609619 5.39863281 2.23219238 6.11914062 2.35180664 C9.2897962 3.06520415 12.0878676 4.13509217 15.09375 5.37109375 C16.8713269 6.10150879 16.8713269 6.10150879 18.68481445 6.84667969 C19.95679285 7.37635345 21.22851605 7.90664041 22.5 8.4375 C23.14560883 8.70566528 23.79121765 8.97383057 24.45639038 9.25012207 C39.48703426 15.50264685 54.13470597 22.47001275 68.6484375 29.83886719 C72.59868499 31.83550218 76.57975378 33.74445256 80.59765625 35.6015625 C102.70441914 45.87185615 123.23175157 58.41794725 143.73632812 71.55566406 C146.10391918 73.06630564 148.48024545 74.56229001 150.859375 76.0546875 C164.16257681 84.39997695 177.32644178 92.75394528 189.69921875 102.44140625 C193.18255903 105.16136064 196.74065226 107.77290567 200.3125 110.375 C204.86493951 113.69226332 209.39199204 117.03815708 213.88574219 120.43457031 C225.87178291 129.49029769 238.09866424 138.18741195 250.65258789 146.43994141 C254.09079313 148.70355504 257.47370129 151.03088845 260.8359375 153.40625 C281.5821981 167.96877384 303.82159436 180.152084 327.56103516 189.04492188 C329.30489333 189.72780207 331.03247561 190.4528434 332.74755859 191.20507812 C340.42982746 194.57411426 348.08336007 196.75010526 356.25 198.625 C357.52327148 198.92422363 358.79654297 199.22344727 360.10839844 199.53173828 C376.73984936 203.3979886 392.77583126 206.20028378 409.89916992 206.29516602 C411.3289586 206.3066224 412.75870669 206.32697266 414.18823242 206.35668945 C437.89203477 206.84658446 457.88744853 198.46333405 476.25 183.75 C479.01800226 180.98199774 480.53791199 178.61221743 482 175 C482.67397607 177.4070574 483.09012983 179.70043754 483.41015625 182.1875 C484.20393902 187.3181754 485.64753989 192.19481894 487.0625 197.18359375 C490.52646206 211.28480595 490.4426936 227.92440377 487 242 C486.84402344 242.65500488 486.68804688 243.31000977 486.52734375 243.98486328 C481.64312875 264.13225015 473.44423155 282.06816636 460 298 C459.33291016 298.88558594 459.33291016 298.88558594 458.65234375 299.7890625 C446.34748276 315.6687302 426.40469461 324.52600821 408 331 C407.09491699 331.32685791 406.18983398 331.65371582 405.25732422 331.99047852 C391.99163706 336.10182737 378.14835474 336.54030473 364.375 336.4375 C363.50459076 336.43445862 362.63418152 336.43141724 361.73739624 336.42828369 C339.8467297 336.31561943 319.84035502 332.6088333 299 326 C298.22994629 325.76023437 297.45989258 325.52046875 296.66650391 325.2734375 C291.4035052 323.6265589 286.19004035 321.86383279 281 320 C280.21834473 319.71962891 279.43668945 319.43925781 278.63134766 319.15039062 C265.52220549 314.3661478 253.42371536 308.2291798 241.31298828 301.31884766 C239.44492093 300.2536904 237.56588917 299.20777623 235.68359375 298.16796875 C218.77081348 288.66505522 203.06577353 277.17247322 188 265 C187.41943848 264.53126465 186.83887695 264.0625293 186.24072266 263.57958984 C183.90424421 261.68755404 181.5777685 259.78417554 179.26171875 257.8671875 C177.60726171 256.50133177 175.91673809 255.17884202 174.20703125 253.8828125 C173.47871094 253.26148438 172.75039063 252.64015625 172 252 C172 251.34 172 250.68 172 250 C171.42121094 249.73832031 170.84242188 249.47664062 170.24609375 249.20703125 C163.72311957 245.70164165 157.59654875 239.37551338 153.125 233.5625 C151.36773571 231.443446 149.78730497 229.91785153 147.6875 228.1875 C143.65883847 224.81466709 140.37797923 221.01094666 137 217 C136.03875361 215.88846323 135.07643209 214.7778557 134.11328125 213.66796875 C133.09600341 212.48728129 132.07907693 211.30629101 131.0625 210.125 C130.56524414 209.55322021 130.06798828 208.98144043 129.55566406 208.39233398 C126 204.22767847 126 204.22767847 126 202 C125.34 202 124.68 202 124 202 C122.40625 200.05078125 122.40625 200.05078125 120.5 197.3125 C117.46458924 193.02785882 114.3537103 188.82922133 111.125 184.6875 C101.29562989 171.98507508 92.35360598 158.94055866 84.59667969 144.8503418 C80.86775598 138.09382733 77.1048893 131.83127671 72 126 C71.16210938 125.00742187 70.32421875 124.01484375 69.4609375 122.9921875 C45.89786397 95.7755138 11.2066724 81.63472477 -24 78 C-24.75603516 77.91347168 -25.51207031 77.82694336 -26.29101562 77.73779297 C-56.3337491 74.4272068 -88.41138276 82.72558656 -113.80078125 98.828125 C-116 100 -116 100 -119 100 C-115.5193582 90.39342863 -108.50173416 82.16196029 -102.23828125 74.18945312 C-99.90294687 71.2364125 -99.90294687 71.2364125 -98 68 C-97.34 68 -96.68 68 -96 68 C-95.7834375 67.46761719 -95.566875 66.93523437 -95.34375 66.38671875 C-93.50573534 63.1221055 -91.04675902 60.52877829 -88.5 57.8125 C-87.96318604 57.23806152 -87.42637207 56.66362305 -86.87329102 56.07177734 C-79.86782398 48.65495542 -72.76184232 42.17697473 -64.015625 36.86328125 C-61.85352312 35.52737115 -59.76086689 34.17129754 -57.671875 32.73046875 C-43.55980834 23.00229937 -28.80699432 14.70517572 -12.796875 8.53515625 C-9.29369021 7.17716986 -5.99204878 5.52370819 -2.67285156 3.76733398 C-1 3 -1 3 1 3 C0.505 1.515 0.505 1.515 0 0 Z " class="color_base" transform="translate(184,527)"/>

<path d="M0 0 C1.32 0 2.64 0 4 0 C4 0.66 4 1.32 4 2 C4.69931641 2.11609619 5.39863281 2.23219238 6.11914062 2.35180664 C9.2897962 3.06520415 12.0878676 4.13509217 15.09375 5.37109375 C16.8713269 6.10150879 16.8713269 6.10150879 18.68481445 6.84667969 C19.95679285 7.37635345 21.22851605 7.90664041 22.5 8.4375 C23.14560883 8.70566528 23.79121765 8.97383057 24.45639038 9.25012207 C39.48703426 15.50264685 54.13470597 22.47001275 68.6484375 29.83886719 C72.59868499 31.83550218 76.57975378 33.74445256 80.59765625 35.6015625 C102.70441914 45.87185615 123.23175157 58.41794725 143.73632812 71.55566406 C146.10391918 73.06630564 148.48024545 74.56229001 150.859375 76.0546875 C164.16257681 84.39997695 177.32644178 92.75394528 189.69921875 102.44140625 C193.18255903 105.16136064 196.74065226 107.77290567 200.3125 110.375 C204.86493951 113.69226332 209.39199204 117.03815708 213.88574219 120.43457031 C225.87178291 129.49029769 238.09866424 138.18741195 250.65258789 146.43994141 C254.09079313 148.70355504 257.47370129 151.03088845 260.8359375 153.40625 C281.5821981 167.96877384 303.82159436 180.152084 327.56103516 189.04492188 C329.30489333 189.72780207 331.03247561 190.4528434 332.74755859 191.20507812 C340.42982746 194.57411426 348.08336007 196.75010526 356.25 198.625 C357.52327148 198.92422363 358.79654297 199.22344727 360.10839844 199.53173828 C376.73984936 203.3979886 392.77583126 206.20028378 409.89916992 206.29516602 C411.3289586 206.3066224 412.75870669 206.32697266 414.18823242 206.35668945 C437.89203477 206.84658446 457.88744853 198.46333405 476.25 183.75 C479.01800226 180.98199774 480.53791199 178.61221743 482 175 C482.67397607 177.4070574 483.09012983 179.70043754 483.41015625 182.1875 C484.20393902 187.3181754 485.64753989 192.19481894 487.0625 197.18359375 C490.52646206 211.28480595 490.4426936 227.92440377 487 242 C486.84402344 242.65500488 486.68804688 243.31000977 486.52734375 243.98486328 C481.64312875 264.13225015 473.44423155 282.06816636 460 298 C459.33291016 298.88558594 459.33291016 298.88558594 458.65234375 299.7890625 C446.34748276 315.6687302 426.40469461 324.52600821 408 331 C407.09491699 331.32685791 406.18983398 331.65371582 405.25732422 331.99047852 C391.99163706 336.10182737 378.14835474 336.54030473 364.375 336.4375 C363.50459076 336.43445862 362.63418152 336.43141724 361.73739624 336.42828369 C339.8467297 336.31561943 319.84035502 332.6088333 299 326 C298.22994629 325.76023437 297.45989258 325.52046875 296.66650391 325.2734375 C291.4035052 323.6265589 286.19004035 321.86383279 281 320 C280.21834473 319.71962891 279.43668945 319.43925781 278.63134766 319.15039062 C265.52220549 314.3661478 253.42371536 308.2291798 241.31298828 301.31884766 C239.44492093 300.2536904 237.56588917 299.20777623 235.68359375 298.16796875 C218.77081348 288.66505522 203.06577353 277.17247322 188 265 C187.41943848 264.53126465 186.83887695 264.0625293 186.24072266 263.57958984 C183.90424421 261.68755404 181.5777685 259.78417554 179.26171875 257.8671875 C177.60726171 256.50133177 175.91673809 255.17884202 174.20703125 253.8828125 C173.47871094 253.26148438 172.75039063 252.64015625 172 252 C172 251.34 172 250.68 172 250 C171.42121094 249.73832031 170.84242188 249.47664062 170.24609375 249.20703125 C163.72311957 245.70164165 157.59654875 239.37551338 153.125 233.5625 C151.36773571 231.443446 149.78730497 229.91785153 147.6875 228.1875 C143.65883847 224.81466709 140.37797923 221.01094666 137 217 C136.03875361 215.88846323 135.07643209 214.7778557 134.11328125 213.66796875 C133.09600341 212.48728129 132.07907693 211.30629101 131.0625 210.125 C130.56524414 209.55322021 130.06798828 208.98144043 129.55566406 208.39233398 C126 204.22767847 126 204.22767847 126 202 C125.34 202 124.68 202 124 202 C122.40625 200.05078125 122.40625 200.05078125 120.5 197.3125 C117.46458924 193.02785882 114.3537103 188.82922133 111.125 184.6875 C101.29562989 171.98507508 92.35360598 158.94055866 84.59667969 144.8503418 C80.86775598 138.09382733 77.1048893 131.83127671 72 126 C71.16210938 125.00742187 70.32421875 124.01484375 69.4609375 122.9921875 C45.89786397 95.7755138 11.2066724 81.63472477 -24 78 C-24.75603516 77.91347168 -25.51207031 77.82694336 -26.29101562 77.73779297 C-56.3337491 74.4272068 -88.41138276 82.72558656 -113.80078125 98.828125 C-116 100 -116 100 -119 100 C-115.5193582 90.39342863 -108.50173416 82.16196029 -102.23828125 74.18945312 C-99.90294687 71.2364125 -99.90294687 71.2364125 -98 68 C-97.34 68 -96.68 68 -96 68 C-95.7834375 67.46761719 -95.566875 66.93523437 -95.34375 66.38671875 C-93.50573534 63.1221055 -91.04675902 60.52877829 -88.5 57.8125 C-87.96318604 57.23806152 -87.42637207 56.66362305 -86.87329102 56.07177734 C-79.86782398 48.65495542 -72.76184232 42.17697473 -64.015625 36.86328125 C-61.85352312 35.52737115 -59.76086689 34.17129754 -57.671875 32.73046875 C-43.55980834 23.00229937 -28.80699432 14.70517572 -12.796875 8.53515625 C-9.29369021 7.17716986 -5.99204878 5.52370819 -2.67285156 3.76733398 C-1 3 -1 3 1 3 C0.505 1.515 0.505 1.515 0 0 Z " class="white" style="opacity: 0.75"  transform="translate(184,527)"/>

<path d="M0 0 C3.41090708 0.01072076 6.82128645 0.00003281 10.23217773 -0.01269531 C29.5883422 -0.02630976 48.55634051 1.44022545 67.66772461 4.51074219 C68.33589203 4.61712006 69.00405945 4.72349792 69.69247437 4.83309937 C131.36238826 14.70814867 192.70260671 37.12285743 243.98022461 73.26074219 C244.64973145 73.72947754 245.31923828 74.19821289 246.0090332 74.68115234 C258.98652443 83.79349092 271.00494104 93.55647765 282.73022461 104.22949219 C284.72238937 106.02797427 286.74801972 107.77274303 288.79272461 109.51074219 C297.44963807 117.05914844 305.68414544 125.39130134 312.98022461 134.26074219 C313.59534912 134.99719971 313.59534912 134.99719971 314.22290039 135.74853516 C325.66558621 149.48862532 335.72623606 164.06330827 344.73022461 179.51074219 C345.24391602 180.37973145 345.75760742 181.2487207 346.28686523 182.14404297 C348.95679639 186.83285845 350.8839779 190.73343131 350.98022461 196.26074219 C348.84351336 203.13751403 342.64834726 207.36698836 336.98022461 211.26074219 C335.42948242 212.36289062 335.42948242 212.36289062 333.84741211 213.48730469 C317.4741687 224.79981368 300.80262449 228.67482763 281.04272461 228.57324219 C280.30934875 228.57141937 279.5759729 228.56959656 278.82037354 228.56771851 C267.27721479 228.51943985 256.27063374 227.71731104 244.98022461 225.26074219 C243.05986585 224.86906572 241.13927889 224.47850701 239.21850586 224.08886719 C233.45191291 222.89783893 227.71254499 221.6063678 221.98022461 220.26074219 C220.76206055 219.97714844 219.54389648 219.69355469 218.28881836 219.40136719 C182.54134328 210.10263747 148.82515129 190.49687323 119.14257812 168.95532227 C115.03569216 165.98177492 110.84562239 163.16467578 106.60522461 160.38574219 C99.94710094 156.00122915 93.57796319 151.29505163 87.23022461 146.47558594 C82.59904948 142.95968674 77.91652598 139.51514275 73.23022461 136.07324219 C68.02213601 132.24557958 62.82604284 128.4052381 57.66772461 124.51074219 C55.77376242 123.09157493 53.87791922 121.67491461 51.98022461 120.26074219 C50.95670898 119.49761719 49.93319336 118.73449219 48.87866211 117.94824219 C39.4657767 111.0293931 29.56755032 104.96760538 19.60571289 98.87792969 C16.38646662 96.89501289 13.19551373 94.87012693 10.00756836 92.83740234 C-14.66863843 77.06403803 -14.66863843 77.06403803 -40.5534668 63.42773438 C-45.56703444 61.05544638 -50.56115162 58.6424028 -55.55822754 56.23562622 C-57.37980573 55.36046194 -59.20412764 54.49101541 -61.02856445 53.62182617 C-66.77707797 50.86736306 -72.45143759 48.04784288 -78.04776001 44.99484253 C-88.25875274 39.44213693 -98.80022597 35.01367676 -109.58227539 30.69824219 C-111.38404311 29.96925298 -113.1854773 29.23943885 -114.98657227 28.50878906 C-119.32720793 26.74995777 -123.67213113 25.00217268 -128.01977539 23.26074219 C-128.01977539 22.93074219 -128.01977539 22.60074219 -128.01977539 22.26074219 C-126.76165039 22.00808594 -125.50352539 21.75542969 -124.20727539 21.49511719 C-118.65273519 20.26029351 -113.38223477 18.39208871 -108.01977539 16.51074219 C-87.1725586 9.41862293 -65.87391377 4.89913907 -44.01977539 2.26074219 C-43.30014618 2.17320679 -42.58051697 2.08567139 -41.83908081 1.9954834 C-27.88350901 0.34789925 -14.04500886 -0.0523129 0 0 Z " class="color_base" transform="translate(316.019775390625,505.7392578125)"/>
</svg>
